<svg height="64px" version="1.1" width="170" fill="#eaecf0" xml:space="preserve" xmlns="http://www.w3.org/2000/svg"
                xmlns:xlink="http://www.w3.org/1999/xlink">
                <path class="st00" d="M26.5,57.4h-0.6v0.8c1.2,0,2.4-0.1,3.6-0.1c1.2,0,2.4,0.1,3.6,0.1v-0.8h-0.6c-0.9,0-1.7,0-1.7-1.1v-9.6
            c1.1-0.7,2.8-1.6,3.9-1.6c1.9,0,3.1,0.9,3.1,2.8v8.4c0,1.1-0.7,1.1-1.6,1.1h-0.6v0.8c1.2,0,2.4-0.1,3.6-0.1c1.2,0,2.4,0.1,3.6,0.1
            v-0.8h-0.6c-0.9,0-1.7,0-1.7-1.1v-8.4c0-2.5-1-4.6-3.9-4.6c-2.3,0-3.9,1.1-5.8,2.4v-2.1c0-0.3-0.1-0.3-0.2-0.3
            c-1.6,0.7-3,1.1-4.4,1.6v0.6c1.6,0.6,2,0.9,2,2.2v8.6C28.1,57.4,27.4,57.4,26.5,57.4"></path>
                <path class="st11" d="M48.8,58.2c1.2,0,2.4,0.1,3.5,0.1v-0.8h-0.6c-0.9,0-1.7,0-1.7-1.1V43.8c0-0.3-0.1-0.5-0.2-0.5
            c-0.2,0-0.4,0-0.6,0.2c-0.1,0.1-2,0.7-3.6,1.2v0.5c1.2,0.7,1.7,0.8,1.7,2.3v8.8c0,1.1-0.7,1.1-1.6,1.1h-0.6v0.8
            C46.4,58.2,47.6,58.2,48.8,58.2 M49.3,35.1c-0.8,0-1.6,0.8-1.6,1.6c0,0.8,0.8,1.6,1.6,1.6c0.9,0,1.6-0.8,1.6-1.6
            C50.9,35.8,50.1,35.1,49.3,35.1"></path>
                <path class="st00" d="M61,58.7L65.8,47c0.6-1.5,1.1-2.3,2.7-2.3v-0.8c-1,0-2,0.1-3.1,0.1c-0.8,0-1.6,0-2.4-0.1v0.8
            c1.4,0.1,1.8,0.2,1.8,0.9c0,0.8-0.3,1.6-0.7,2.5l-2.8,6.7L59,48.6c-0.6-1.5-1.1-2.5-1.1-3c0-0.8,0.4-0.9,1.9-0.9v-0.8
            c-1.2,0-2.3,0.1-3.5,0.1c-1.1,0-2.3,0-3.4-0.1v0.8c1.3,0,1.6,0,2.6,2.5l4.6,11.5H61z"></path>
                <path class="st11" d="M81.6,49c0-0.2,0-0.4,0-0.6c0-3.5-3-5.1-5.7-5.1c-2.4,0-6.8,1.9-6.8,8.3c0,2.1,1.1,7.1,6.4,7.1
            c2.8,0,4.7-1.7,6.2-3.7l-0.5-0.5c-1.2,1.2-2.7,2.2-4.5,2.2c-2.7,0-4.7-2.5-4.9-5.6c-0.1-1.1-0.1-1.6,0-1.9h9.4L81.6,49z M75.9,44.4
            c1.9,0,2.9,1.3,2.9,3c0,0.4-0.1,0.8-0.9,0.8H72C72.4,45.9,73.8,44.4,75.9,44.4"></path>
                <path class="st00"
                    d="M87.9,58.2c1.4,0,2.9,0,4.7,0.1v-0.8h-1.9c-0.9,0-1.6,0-1.6-1.1v-7.7c0-2,1.9-2.7,2.5-2.7
            c1.2,0,1.2,0.8,2.2,0.8c0.9,0,1.6-0.8,1.6-1.7c0-1.2-1.1-1.7-1.9-1.7c-2.1,0-3.5,2.1-4.3,3.4H89v-2.9c0-0.3-0.1-0.4-0.3-0.4
            c-0.3,0-1.6,0.8-4.1,1.9v0.5c0.5,0.3,1.7,0.5,1.7,1.5v9.1c0,1.1-0.7,1.1-1.6,1.1h-0.9v0.8C85.1,58.2,86.5,58.2,87.9,58.2">
                </path>
                <path class="st00" d="M97.7,57.6c1.2,0.7,2.8,1.1,4.1,1.1c4,0,5.8-2.3,5.8-4.4c0-5.1-7.8-3.9-7.8-7.8c0-1.4,1.3-2.2,2.6-2.2
            c2.2,0,3.3,1.2,3.7,3.2h0.8l-0.2-3.3c-1.3-0.6-2.8-0.9-3.8-0.9c-3.7,0-5.2,2.3-5.2,4.2c0,5.2,7.3,4,7.3,7.8c0,1.1-0.7,2.3-2.7,2.3
            c-2.5,0-3.8-1.8-4.2-4l-0.6,0.2L97.7,57.6z"></path>
                <path class="st11" d="M114.3,58.2c1.2,0,2.4,0.1,3.5,0.1v-0.8h-0.6c-0.9,0-1.7,0-1.7-1.1V43.8c0-0.3-0.1-0.5-0.2-0.5
            c-0.2,0-0.4,0-0.6,0.2c-0.1,0.1-2,0.7-3.6,1.2v0.5c1.2,0.7,1.7,0.8,1.7,2.3v8.8c0,1.1-0.7,1.1-1.6,1.1h-0.6v0.8
            C111.8,58.2,113,58.2,114.3,58.2 M117.7,32.8c-0.8,0-1.6,0.8-1.6,1.6c0,0.8,0.8,1.6,1.6,1.6c0.9,0,1.6-0.8,1.6-1.6
            C119.4,33.4,118.6,32.8,117.7,32.8"></path>
                <path class="st00" d="M129.9,45.7v-1.8h-5v-3.3h-0.4c-1.7,2.6-2.8,3.3-4.5,4.6v0.5h2.2v10c0,1.9,1,3,3.2,3c1.8,0,3.3-1,4.5-2.2
            l-0.5-0.5c-0.8,0.7-1.4,0.9-2.4,0.9c-0.9,0-2.1-0.6-2.1-2.7v-8.5H129.9z"></path>
                <path class="st11" d="M144.5,49.3c0-0.2,0-0.4,0-0.6c0-3.5-3-5.1-5.7-5.1c-2.4,0-6.8,1.9-6.8,8.3c0,2.1,1.1,7.1,6.4,7.1
            c2.8,0,4.7-1.7,6.2-3.7l-0.5-0.5c-1.2,1.2-2.7,2.2-4.5,2.2c-2.7,0-4.7-2.5-4.9-5.6c-0.1-1.1-0.1-1.6,0-1.9h9.4L144.5,49.3z
             M138.7,44.6c1.9,0,2.9,1.3,2.9,3c0,0.4-0.1,0.8-0.9,0.8h-5.8C135.3,46.1,136.7,44.6,138.7,44.6"></path>
                <path class="st00" d="M147.7,57.8c1.2,0.7,2.8,1.1,4.1,1.1c4,0,5.8-2.3,5.8-4.4c0-5.1-7.8-3.9-7.8-7.8c0-1.4,1.3-2.1,2.6-2.1
            c2.2,0,3.3,1.2,3.7,3.2h0.8l-0.2-3.3c-1.3-0.7-2.8-0.9-3.8-0.9c-3.7,0-5.2,2.3-5.2,4.2c0,5.2,7.3,4,7.3,7.8c0,1.1-0.7,2.3-2.7,2.3
            c-2.5,0-3.8-1.8-4.2-4l-0.6,0.2L147.7,57.8z"></path>
                <path class="st11" d="M163.9,58.3c1.2,0,2.4,0.1,3.5,0.1v-0.8h-0.6c-0.9,0-1.7,0-1.7-1.1V43.9c0-0.3-0.1-0.5-0.2-0.5
            c-0.2,0-0.4,0-0.6,0.2c-0.1,0.1-2,0.7-3.6,1.2v0.5c1.2,0.7,1.7,0.8,1.7,2.3v8.8c0,1.1-0.7,1.1-1.6,1.1h-0.6v0.8
            C161.4,58.3,162.6,58.3,163.9,58.3 M165.8,22.1c-0.8,0-1.6,0.8-1.6,1.6c0,0.8,0.8,1.6,1.6,1.6c0.9,0,1.6-0.7,1.6-1.6
            C167.5,22.7,166.7,22.1,165.8,22.1"></path>
                <path class="st00"
                    d="M5.2,22.4c-0.8,0-1.6,0.7-1.6,1.6c0,0.9,0.8,1.6,1.6,1.6c0.9,0,1.6-0.7,1.6-1.6C6.8,23,6,22.4,5.2,22.4">
                </path>
                <path class="st00"
                    d="M19.3,27.6c-0.8,0-1.6,0.7-1.6,1.6c0,0.9,0.8,1.6,1.6,1.6c0.9,0,1.6-0.7,1.6-1.6C21,28.3,20.2,27.6,19.3,27.6">
                </path>
                <path class="st11" d="M21.1,36c-1.4,0-2.8,0-4.2-0.1v0.8c3,0.1,3.2-0.4,3.2,4.9V51c0,2.2-0.5,6.4-6.1,6.4c-5.2,0-6.6-3.7-6.6-7.6
            V39.1c0-2.3,1.3-2.3,3.1-2.3v-0.8c-1.7,0-3.2,0.1-4.8,0.1c-1.5,0-3.1,0-4.6-0.1v0.8c1.8,0,3.1,0.1,3.1,2.3v11.5
            c0.1,5.5,3.4,8.1,9,8.1c5.9,0,8.8-3.3,8.8-7.8v-9.4c0-4,0-4.8,2.7-4.8v-0.8C23.4,35.9,22.3,36,21.1,36"></path>
                <path class="st00" d="M36,26.3c3.9,0,7.8-2.4,7.8-6.6c0-7.4-10.3-5.8-10.3-11.8c0-2.4,1.5-4.1,4-4.1c2.4,0,3.9,1.3,4.3,3.6h0.8
            l-0.5-4.1c-1.3-0.2-2.7-0.5-4.1-0.5c-4.1,0-7.1,2.2-7.1,6.3c0,7.6,9.9,5.8,9.9,11.8c0,2.5-2,4.3-4.6,4.3c-2.8,0-4.6-2.4-5.2-4.8
            h-0.8l0.7,4.7C32.5,25.9,34.3,26.3,36,26.3"></path>
                <path class="st11" d="M51.9,24.8c-1.3,0-2.4-1.1-2.4-2.3c0-2.4,4.3-3.2,6-3.8v4.3C54.4,23.8,53.4,24.8,51.9,24.8 M59.4,24.5
            c-0.7,0-1.2-0.5-1.2-1.8v-8.9c0-1.8-2.6-2.7-4.1-2.7c-1.3,0-1.8,0.5-3,1c-2.3,1.2-3.8,2-3.8,3.7c0,0.2,0.1,0.6,0.6,0.6
            c0.8,0,1.9-0.5,1.9-1.4c0.1-1.5,1.1-2.3,2.5-2.3c2.1,0,3.2,1,3.2,2.8v2.1c-7.2,2.4-8.6,2.9-8.7,5.5c0,1.7,1.5,3.1,3.6,3.1
            c2.1,0,3.6-1,5.1-2.4c0.1,1.2,0.7,2.4,2.1,2.4c1.3,0,2.4-0.9,3.3-1.7L60.6,24C60.3,24.3,59.8,24.5,59.4,24.5">
                </path>
                <path class="st11" d="M67,1.1c-0.1,0-0.4,0.2-0.7,0.4c-0.7,0.4-2.1,1-3.4,1.4v0.5c1.3,0.4,1.8,0.4,1.8,2.5v13.9c0,2-0.2,3.8-0.5,5.7
            l0.7,0.4l1-0.7c0.9,0.4,2.2,1.1,4.6,1.1c4.8,0,8-4.2,8-8.5c0-3.5-2.3-6.8-6.2-6.8c-1.8,0-3.6,1.2-5,2.3V1.6
            C67.2,1.3,67.2,1.1,67,1.1 M70.4,12.8c2.6,0,5.3,2.9,5.3,6.4c0,2.9-1.5,6.3-5.1,6.3c-2.2,0-3.4-2.1-3.4-3.3v-7.8
            C68.1,13.6,69.1,12.8,70.4,12.8"></path>
                <path class="st11" d="M86.1,24.8c-1.3,0-2.4-1.1-2.4-2.3c0-2.4,4.3-3.2,6-3.8v4.3C88.7,23.9,87.7,24.8,86.1,24.8 M93.6,24.6
            c-0.7,0-1.2-0.5-1.2-1.8v-8.9c0-1.8-2.6-2.7-4.1-2.7c-1.3,0-1.8,0.4-3,1c-2.3,1.2-3.8,2-3.8,3.7c0,0.2,0.1,0.6,0.6,0.6
            c0.8,0,1.9-0.5,1.9-1.4c0.1-1.5,1.1-2.3,2.5-2.3c2.1,0,3.2,1,3.2,2.8v2.1c-7.2,2.4-8.6,2.9-8.7,5.5c0,1.7,1.5,3.1,3.6,3.1
            c2.1,0,3.6-1,5.1-2.4c0.1,1.2,0.7,2.4,2.1,2.4c1.3,0,2.4-0.9,3.3-1.7L94.9,24C94.6,24.4,94.1,24.6,93.6,24.6">
                </path>
                <path class="st00" d="M98,25h-0.6v0.8c1.2,0,2.4-0.1,3.6-0.1c1.2,0,2.4,0.1,3.5,0.1V25h-0.6c-0.9,0-1.7,0-1.7-1.1v-9.6
            c1.1-0.7,2.8-1.5,3.9-1.5c1.9,0,3.1,0.9,3.1,2.7v8.4c0,1.1-0.7,1.1-1.6,1.1H107v0.8c1.2,0,2.4-0.1,3.6-0.1c1.2,0,2.4,0.1,3.5,0.1V25
            h-0.6c-0.9,0-1.7,0-1.7-1.1v-8.3c0-2.5-1-4.5-3.8-4.5c-2.2,0-3.9,1.1-5.8,2.4v-2.1c0-0.3-0.1-0.3-0.2-0.3c-1.6,0.7-3,1.1-4.4,1.5
            v0.6c1.6,0.6,1.9,0.9,1.9,2.1v8.6C99.6,25,98.9,25,98,25"></path>
                <path class="st00" d="M124.3,23.9c-3.6,0-5.8-2.9-5.8-6.3c0-2.5,1.5-5.6,4.4-5.6c3.1,0,3.1,2.6,4.5,2.6c0.8,0,1.3-0.7,1.3-1.4
            c0-1.7-2.8-2.2-4.5-2.2c-4.8,0-8.3,3.9-8.3,8.6c0,3.4,3.2,6.7,6.6,6.7c2.6,0,4.9-1.5,6.5-3.4l-0.6-0.6
            C127.1,23.3,126,23.9,124.3,23.9"></path>
                <path class="st00" d="M134.8,25.7c1.2,0,2.4,0.1,3.5,0.1V25h-0.6c-0.9,0-1.7,0-1.7-1.1V11.5c0-0.3-0.1-0.5-0.2-0.5
            c-0.2,0-0.4,0-0.6,0.2c-0.1,0.1-2,0.7-3.6,1.2v0.5c1.2,0.6,1.7,0.8,1.7,2.3v8.7c0,1.1-0.7,1.1-1.6,1.1h-0.6v0.8
            C132.4,25.8,133.6,25.7,134.8,25.7"></path>
            </svg>