<?xml version="1.0" standalone="no"?>
<!DOCTYPE svg PUBLIC "-//W3C//DTD SVG 20010904//EN"
 "http://www.w3.org/TR/2001/REC-SVG-20010904/DTD/svg10.dtd">
<svg version="1.0" xmlns="http://www.w3.org/2000/svg"
 width="223.000000pt" height="211.000000pt" viewBox="0 0 223.000000 211.000000"
 preserveAspectRatio="xMidYMid meet">

<g transform="translate(0.000000,211.000000) scale(0.100000,-0.100000)"
fill="#000000" stroke="none">
<path d="M780 1410 l0 -210 45 0 45 0 0 79 c0 62 3 80 16 85 27 10 51 -11 99
-89 l47 -75 49 0 c48 0 49 1 38 23 -20 38 -71 111 -98 141 -21 23 -23 30 -11
34 8 3 27 19 43 35 21 23 27 39 27 74 0 93 -34 113 -190 113 l-110 0 0 -210z
m190 130 c37 -37 19 -87 -37 -104 -13 -4 -32 -4 -43 -1 -17 5 -20 15 -20 59 0
29 3 56 7 59 14 15 74 6 93 -13z"/>
<path d="M1160 1324 c0 -3 29 -66 65 -139 61 -127 65 -139 65 -205 l0 -71 43
3 42 3 5 80 c5 74 10 89 68 202 34 67 62 124 62 127 0 3 -20 6 -45 6 l-45 0
-26 -57 c-13 -32 -30 -70 -37 -86 -6 -15 -16 -26 -20 -24 -5 1 -25 40 -44 85
l-35 82 -49 0 c-27 0 -49 -3 -49 -6z"/>
<path d="M560 1226 c0 -41 18 -94 63 -185 32 -65 147 -193 190 -212 12 -5 37
-19 56 -30 34 -20 144 -59 169 -59 6 0 12 9 12 20 0 13 -9 21 -27 26 -201 42
-379 219 -418 414 -7 38 -16 56 -28 58 -13 3 -17 -4 -17 -32z"/>
<path d="M1677 1215 c-8 -58 -57 -165 -105 -227 -42 -56 -134 -129 -199 -159
-25 -11 -73 -27 -109 -36 -56 -14 -64 -19 -64 -39 0 -27 7 -28 82 -13 90 19
192 74 268 146 83 78 130 151 164 257 34 103 34 116 -3 116 -26 0 -29 -4 -34
-45z"/>
<path d="M330 395 l0 -155 30 0 30 0 0 105 c0 58 4 105 9 105 5 0 39 -47 76
-105 64 -99 70 -105 101 -105 l34 0 0 155 0 155 -30 0 -30 0 0 -94 c0 -52 -4
-97 -8 -100 -5 -3 -35 36 -67 87 -33 51 -64 95 -70 99 -5 4 -25 8 -42 8 l-33
0 0 -155z"/>
<path d="M690 395 l0 -155 91 0 90 0 -3 28 c-3 26 -6 27 -60 30 l-58 3 0 124
0 125 -30 0 -30 0 0 -155z"/>
<path d="M920 396 l0 -156 29 0 c29 0 30 2 33 52 l3 53 50 8 c69 11 105 47
105 102 0 32 -6 47 -26 66 -22 21 -37 24 -110 28 l-84 3 0 -156z m138 92 c17
-17 15 -63 -2 -77 -8 -7 -27 -11 -43 -9 -24 3 -28 8 -31 36 -2 19 -1 40 2 48
7 17 57 19 74 2z"/>
<path d="M1200 395 l0 -155 91 0 90 0 -3 28 c-3 26 -6 27 -60 30 l-58 3 0 124
0 125 -30 0 -30 0 0 -155z"/>
<path d="M1478 478 c-14 -40 -40 -110 -57 -155 l-30 -83 37 0 c34 0 39 3 47
33 10 31 11 32 70 32 58 0 59 -1 69 -32 8 -29 13 -33 42 -33 19 0 34 4 34 8 0
5 -18 60 -41 123 -23 63 -46 129 -52 147 -9 29 -14 32 -51 32 l-41 0 -27 -72z
m91 -57 c18 -54 15 -61 -23 -61 -19 0 -37 3 -39 8 -2 4 3 31 12 59 17 58 29
57 50 -6z"/>
<path d="M1740 396 l0 -156 75 0 c109 0 155 28 155 95 0 17 -11 36 -29 52
l-28 25 23 24 c29 28 30 54 5 85 -17 21 -29 24 -110 27 l-91 4 0 -156z m144
93 c16 -15 -3 -57 -29 -63 -14 -4 -30 -4 -35 -1 -11 7 -14 68 -4 78 8 8 55 -2
68 -14z m-3 -119 c11 -6 19 -21 19 -35 0 -27 -25 -45 -64 -45 -23 0 -26 4 -26
38 0 21 3 42 7 45 10 10 42 8 64 -3z"/>
</g>
</svg>
